<svg width="842" height="596" viewBox="0 0 842 596" fill="none" xmlns="http://www.w3.org/2000/svg">
<rect width="841.9" height="595.3" fill="white"/>
<path d="M666.6 79H176V515.9H666.6V79Z" stroke="black" stroke-width="4.39153"/>
<path d="M218.83 287.17V80.2849H665.302V432.375L631.557 467.07H365.491L218.83 287.17Z" fill="#73D2F0" stroke="black" stroke-width="4.39153"/>
<path d="M471.917 359.13C536.43 359.13 588.727 307.352 588.727 243.48C588.727 179.608 536.43 127.83 471.917 127.83C407.405 127.83 355.108 179.608 355.108 243.48C355.108 307.352 407.405 359.13 471.917 359.13Z" fill="#FFFAFA" stroke="black" stroke-width="4.39153"/>
<path d="M471.917 276.89C490.554 276.89 505.662 261.932 505.662 243.48C505.662 225.028 490.554 210.07 471.917 210.07C453.281 210.07 438.172 225.028 438.172 243.48C438.172 261.932 453.281 276.89 471.917 276.89Z" fill="#0D0D0D" stroke="black" stroke-width="4.39153"/>
</svg>
